<?xml version="1.0" encoding="utf-8"?>
<!-- Svg Vector Icons : http://www.onlinewebfonts.com/icon -->
<!DOCTYPE svg PUBLIC "-//W3C//DTD SVG 1.1//EN" "http://www.w3.org/Graphics/SVG/1.1/DTD/svg11.dtd">
<svg version="1.1" xmlns="http://www.w3.org/2000/svg" xmlns:xlink="http://www.w3.org/1999/xlink" x="0px" y="0px" viewBox="0 0 1000 1000" enable-background="new 0 0 1000 1000" xml:space="preserve">
<metadata> Svg Vector Icons : http://www.onlinewebfonts.com/icon </metadata>
<g><path d="M643.4,539.9c84.3-49.4,141.2-140.8,141.2-245.3C784.5,137.7,656.9,10,500,10c-156.9,0-284.5,127.7-284.5,284.5c0,104.6,56.9,195.9,141.2,245.3C182.8,599,57.4,762,57.4,953.9v4.5c0,17.5,14.1,31.6,31.6,31.6s31.6-14.2,31.6-31.6v-4.5C120.6,747.2,290.8,579,500,579c209.2,0,379.4,168.1,379.4,374.8v4.5c0,17.5,14.1,31.6,31.6,31.6s31.6-14.2,31.6-31.6v-4.5C942.6,762,817.2,599,643.4,539.9z M278.7,294.5c0-122,99.3-221.3,221.3-221.3c122,0,221.3,99.3,221.3,221.3c0,122-99.3,221.3-221.3,221.3C378,515.8,278.7,416.5,278.7,294.5z"/></g>
</svg>